<?xml version="1.0" encoding="UTF-8"?>
<!DOCTYPE svg PUBLIC "-//W3C//DTD SVG 1.1//EN" "http://www.w3.org/Graphics/SVG/1.1/DTD/svg11.dtd">
<!-- Creator: CorelDRAW 2021 (64-Bit) -->
<svg xmlns="http://www.w3.org/2000/svg" xml:space="preserve" width="151.555mm" height="113.58mm" version="1.1" style="shape-rendering:geometricPrecision; text-rendering:geometricPrecision; image-rendering:optimizeQuality; fill-rule:evenodd; clip-rule:evenodd"
viewBox="0 0 15155.5 11358"
 xmlns:xlink="http://www.w3.org/1999/xlink"
 xmlns:xodm="http://www.corel.com/coreldraw/odm/2003">
 <defs>
  <style type="text/css">
   <![CDATA[
    .fil0 {fill:#FF581C}
   ]]>
  </style>
 </defs>
 <g id="Capa_x0020_1">
  <metadata id="CorelCorpID_0Corel-Layer"/>
  <g id="_1923031480224">
   <path class="fil0" d="M7689.59 1801.06c0,941.93 650.68,1631.08 1570.9,1780.07 463.46,75.04 1224.89,-64.11 1610.11,47.74 455.16,132.16 699.06,460.69 699.06,958.79l0 2151.67c0,326.5 -90.51,518.9 -230.96,721.43 -117.93,170.06 -411.72,301.5 -686.15,301.5l-2398.59 0c-421.63,0 -766.25,-389.66 -807.59,-779.71 -50.87,-480 53.9,-1175.11 -28.68,-1593.9 -87.97,-446.21 -272.34,-785.68 -547.66,-1039.64 -1195.08,-1102.37 -2989.96,-84.96 -2989.96,1155.75 0,532.76 8.29,850.17 382.41,1310.71 1013.35,1247.39 2486.14,230.88 3191.12,935.86 524.63,524.63 101.85,1635.09 353.68,2397.64 115.14,348.64 302.23,615.93 556.86,818.81 87.49,69.71 69.99,73.59 182.81,134.65 298.44,161.52 604.77,243.79 901.02,257.71l182.33 0c726.99,-34.8 1368,-482.4 1643.38,-1177.81 219.44,-554.15 65.45,-1501.59 122.84,-1993.56 126.99,-1088.4 1771.33,-295.66 2713.95,-778.12 1494.05,-764.7 1293.63,-2933.56 -15.3,-3479.01 -898.83,-374.56 -1892.87,72.24 -2449.4,-337.2 -309.7,-227.85 -252.48,-612.71 -252.48,-1123.19 0,-958.68 21.58,-1470.42 -713.05,-2073.54 -301.73,-247.72 -665.76,-376.4 -1039.91,-395.59l-198.08 0c-239.36,12.12 -479.11,67.91 -705.79,165.03 -306.6,131.36 -529.18,345.51 -715.06,590.06 -207.13,272.5 -331.81,659.22 -331.81,1043.85z"/>
   <path class="fil0" d="M-0 5681.13c0,741.15 439.95,1417.25 1057.73,1728.87 409.07,206.34 608.09,175.89 1199.76,175.89 1564.62,0 1516.76,-125.96 1516.76,1269.84 0,967.1 -34.35,1495.22 713.05,2108.82 277.25,227.62 573.88,352.76 868.46,395.59l472.11 0c1261.76,-180.2 2257.79,-1765.45 1146.32,-3094.12 -97.19,-116.18 -317.25,-274.92 -459.97,-351.32 -1035.2,-554.12 -2289.19,177.34 -2770.15,-580.82 -104.58,-164.84 -181.46,-400.92 -181.46,-665.1l0 -2081.12c0,-584.1 313.44,-1022.93 917.11,-1022.93l2398.58 0c411.5,0 795.75,335.08 842.87,779.71 85.97,811.23 -265.84,1889 594.68,2650.46 668.67,591.7 1768.94,614.77 2416.63,-34.55 151.48,-151.87 266.33,-274.63 367.88,-478.68 498.48,-1001.62 -8.47,-2235.52 -998.49,-2542.63 -884.46,-274.37 -1862.66,164.82 -2387.67,-363.65 -535.41,-538.92 -86.44,-1557.77 -354.3,-2361.75 -220.43,-661.61 -869.91,-1211.52 -1539.8,-1211.52 -503.02,0 -895.86,40.22 -1313.94,379.17 -1379.29,1118.22 -291.6,2791.99 -957.04,3240.5 -539.64,363.72 -1703.11,-57.56 -2468.56,318.03 -547.07,268.44 -1080.56,944.3 -1080.56,1741.31z"/>
  </g>
 </g>
</svg>
